<svg width="428" height="410" viewBox="0 0 428 410" fill="none" xmlns="http://www.w3.org/2000/svg">
<g filter="url(#filter0_d_14_705)">
<path d="M427.166 189C427.166 293.382 382.158 406 273.232 406C21.1659 406 0 293.382 0 189C0 84.6182 121.013 0 229.938 0C338.864 0 427.166 84.6182 427.166 189Z" fill="#FFF0E7"/>
</g>
<path d="M415.621 196C438.775 291 380.07 406 272.098 406C22.2376 406 77.5501 340.185 34.6353 239.468C34.6353 135.378 132.549 31.9999 240.522 31.9999C348.494 31.9999 397.342 121 415.621 196Z" fill="#F1BF9E"/>
<path d="M398.303 176.551C398.303 261.908 359.378 354 265.172 354C47.1683 354 28.8627 261.908 28.8627 176.551C28.8627 91.1949 133.522 21.9998 227.728 21.9998C321.934 21.9998 398.303 91.1949 398.303 176.551Z" fill="#FFDD5D"/>
<g filter="url(#filter1_d_14_705)">
<path d="M398.303 190.449C398.303 269.121 359.378 354 265.172 354C47.1683 354 28.8627 269.121 28.8627 190.449C28.8627 111.777 133.522 48.0004 227.728 48.0004C321.934 48.0004 398.303 111.777 398.303 190.449Z" fill="url(#paint0_linear_14_705)"/>
</g>
<mask id="path-5-inside-1_14_705" fill="white">
<path d="M98.1373 192.091C101.313 150.993 225.496 86.8512 247.077 103.293C256.189 110.237 261.6 127.14 263.392 150.532C283.98 142.15 308.082 144.85 315.211 148.972C328.152 156.456 330.506 192.545 321.711 234.19C316.195 260.302 281.111 263.062 256.257 246.773C254.634 255.714 252.761 264.847 250.636 274.103C231.794 356.177 94.9616 233.19 98.1373 192.091Z"/>
</mask>
<path d="M98.1373 192.091C101.313 150.993 225.496 86.8512 247.077 103.293C256.189 110.237 261.6 127.14 263.392 150.532C283.98 142.15 308.082 144.85 315.211 148.972C328.152 156.456 330.506 192.545 321.711 234.19C316.195 260.302 281.111 263.062 256.257 246.773C254.634 255.714 252.761 264.847 250.636 274.103C231.794 356.177 94.9616 233.19 98.1373 192.091Z" fill="white"/>
<path d="M98.1373 192.091L96.1432 191.937L96.1432 191.937L98.1373 192.091ZM247.077 103.293L248.289 101.703L248.289 101.703L247.077 103.293ZM263.392 150.532L261.398 150.685L261.607 153.418L264.146 152.384L263.392 150.532ZM315.211 148.972L316.212 147.241L316.212 147.241L315.211 148.972ZM321.711 234.19L323.667 234.603L323.667 234.603L321.711 234.19ZM256.257 246.773L257.354 245.1L254.829 243.445L254.29 246.416L256.257 246.773ZM250.636 274.103L252.586 274.551L252.586 274.551L250.636 274.103ZM98.1373 192.091L100.131 192.245C100.493 187.57 102.595 182.402 106.232 176.905C109.859 171.423 114.936 165.73 121.075 160.032C133.352 148.634 149.706 137.366 166.683 127.86C183.659 118.353 201.165 110.661 215.713 106.37C222.993 104.223 229.458 102.95 234.706 102.7C240.034 102.446 243.74 103.265 245.865 104.884L247.077 103.293L248.289 101.703C245.019 99.2111 240.123 98.4377 234.516 98.7049C228.83 98.9758 222.028 100.338 214.582 102.534C199.677 106.93 181.892 114.758 164.728 124.37C147.565 133.981 130.928 145.426 118.353 157.1C112.066 162.937 106.752 168.87 102.896 174.698C99.0491 180.512 96.576 186.338 96.1432 191.937L98.1373 192.091ZM247.077 103.293L245.865 104.884C249.971 108.013 253.43 113.548 256.085 121.386C258.73 129.193 260.51 139.089 261.398 150.685L263.392 150.532L265.386 150.379C264.483 138.582 262.661 128.331 259.874 120.103C257.097 111.906 253.295 105.517 248.289 101.703L247.077 103.293ZM263.392 150.532L264.146 152.384C274.135 148.317 285.029 146.923 294.319 147.063C298.957 147.132 303.162 147.584 306.617 148.261C310.112 148.945 312.706 149.834 314.209 150.704L315.211 148.972L316.212 147.241C314.151 146.049 311.059 145.055 307.386 144.335C303.674 143.608 299.23 143.136 294.379 143.063C284.688 142.918 273.237 144.364 262.638 148.679L263.392 150.532ZM315.211 148.972L314.209 150.704C316.873 152.244 319.223 155.408 321.049 160.289C322.863 165.137 324.072 171.448 324.617 178.916C325.707 193.845 324.124 213.084 319.754 233.777L321.711 234.19L323.667 234.603C328.093 213.651 329.731 194.024 328.607 178.625C328.045 170.93 326.788 164.212 324.796 158.887C322.816 153.596 320.018 149.442 316.212 147.241L315.211 148.972ZM321.711 234.19L319.754 233.777C317.211 245.816 307.903 252.578 295.934 254.405C283.903 256.241 269.411 253.003 257.354 245.1L256.257 246.773L255.161 248.446C267.957 256.832 283.434 260.359 296.538 258.359C309.704 256.35 320.695 248.676 323.667 234.603L321.711 234.19ZM256.257 246.773L254.29 246.416C252.672 255.327 250.805 264.429 248.687 273.656L250.636 274.103L252.586 274.551C254.717 265.265 256.596 256.102 258.225 247.13L256.257 246.773ZM250.636 274.103L248.687 273.656C246.401 283.611 242.385 290.212 237.297 294.265C232.22 298.309 225.849 299.995 218.494 299.695C203.658 299.088 185.281 290.405 167.286 277.655C149.358 264.953 132.102 248.423 119.544 232.545C113.266 224.607 108.197 216.875 104.804 209.906C101.387 202.89 99.7749 196.858 100.131 192.245L98.1373 192.091L96.1432 191.937C95.7057 197.6 97.6746 204.401 101.207 211.657C104.763 218.96 110.01 226.938 116.407 235.027C129.201 251.203 146.735 267.997 164.974 280.919C183.146 293.794 202.31 303.037 218.331 303.691C226.404 304.021 233.79 302.172 239.789 297.393C245.779 292.623 250.161 285.113 252.586 274.551L250.636 274.103Z" fill="#FC5400" mask="url(#path-5-inside-1_14_705)"/>
<defs>
<filter id="filter0_d_14_705" x="0" y="0" width="427.166" height="410" filterUnits="userSpaceOnUse" color-interpolation-filters="sRGB">
<feFlood flood-opacity="0" result="BackgroundImageFix"/>
<feColorMatrix in="SourceAlpha" type="matrix" values="0 0 0 0 0 0 0 0 0 0 0 0 0 0 0 0 0 0 127 0" result="hardAlpha"/>
<feOffset dy="4"/>
<feComposite in2="hardAlpha" operator="out"/>
<feColorMatrix type="matrix" values="0 0 0 0 0.85098 0 0 0 0 0.635294 0 0 0 0 0.45098 0 0 0 1 0"/>
<feBlend mode="normal" in2="BackgroundImageFix" result="effect1_dropShadow_14_705"/>
<feBlend mode="normal" in="SourceGraphic" in2="effect1_dropShadow_14_705" result="shape"/>
</filter>
<filter id="filter1_d_14_705" x="28.8627" y="48.0004" width="369.441" height="316" filterUnits="userSpaceOnUse" color-interpolation-filters="sRGB">
<feFlood flood-opacity="0" result="BackgroundImageFix"/>
<feColorMatrix in="SourceAlpha" type="matrix" values="0 0 0 0 0 0 0 0 0 0 0 0 0 0 0 0 0 0 127 0" result="hardAlpha"/>
<feOffset dy="10"/>
<feComposite in2="hardAlpha" operator="out"/>
<feColorMatrix type="matrix" values="0 0 0 0 1 0 0 0 0 0.368627 0 0 0 0 0.0431373 0 0 0 1 0"/>
<feBlend mode="normal" in2="BackgroundImageFix" result="effect1_dropShadow_14_705"/>
<feBlend mode="normal" in="SourceGraphic" in2="effect1_dropShadow_14_705" result="shape"/>
</filter>
<linearGradient id="paint0_linear_14_705" x1="213.583" y1="48.0004" x2="325.782" y2="338.165" gradientUnits="userSpaceOnUse">
<stop stop-color="#FFBD2F"/>
<stop offset="1" stop-color="#FD8843"/>
</linearGradient>
</defs>
</svg>
