<svg width="444" height="410" viewBox="0 0 444 410" fill="none" xmlns="http://www.w3.org/2000/svg">
<g filter="url(#filter0_d_46_755)">
<path d="M444 189C444 293.382 397.218 406 284 406C22 406 0 293.382 0 189C0 84.6181 125.782 0 239 0C352.218 0 444 84.6181 444 189Z" fill="#FFF0E7"/>
</g>
<path d="M432 196C456.067 291 395.048 406 282.82 406C23.1138 406 80.6061 340.185 36.0001 239.468C36.0001 135.378 137.773 32 250 32C362.227 32 413 121 432 196Z" fill="#F1BF9E"/>
<path d="M414 176.552C414 261.908 373.54 354 275.622 354C49.0273 354 30.0002 261.908 30.0002 176.552C30.0002 91.1951 138.784 22 236.703 22C334.621 22 414 91.1951 414 176.552Z" fill="#77C7DF"/>
<g filter="url(#filter1_d_46_755)">
<path d="M414 190.448C414 269.12 373.54 354 275.622 354C49.0273 354 30.0002 269.12 30.0002 190.448C30.0002 111.776 138.784 48.0002 236.703 48.0002C334.621 48.0002 414 111.776 414 190.448Z" fill="url(#paint0_linear_46_755)"/>
</g>
<mask id="path-5-inside-1_46_755" fill="white">
<path d="M218 245C234.569 245 248 257.76 248 273.5C248 289.24 234.569 302 218 302C201.431 302 188 289.24 188 273.5C188 257.76 201.431 245 218 245ZM233.348 83C249.284 83 268.653 89.9111 283.604 100.098C288.404 103.193 292.578 106.69 296.112 110.525C300.712 115.315 304.193 120.451 306.044 125.696C313.021 141.81 311.778 161.233 301.638 181.239C283.344 217.33 260.158 238.858 203.968 217.098C198 184 223.258 224.494 247.25 164.475C251.975 155.152 253.637 144.901 254.122 135.104C253.757 124.83 254.932 116.515 230 122C194 138 164 181.598 164 144.216C164 106.834 191.566 83.0001 233.348 83Z"/>
</mask>
<path d="M218 245C234.569 245 248 257.76 248 273.5C248 289.24 234.569 302 218 302C201.431 302 188 289.24 188 273.5C188 257.76 201.431 245 218 245ZM233.348 83C249.284 83 268.653 89.9111 283.604 100.098C288.404 103.193 292.578 106.69 296.112 110.525C300.712 115.315 304.193 120.451 306.044 125.696C313.021 141.81 311.778 161.233 301.638 181.239C283.344 217.33 260.158 238.858 203.968 217.098C198 184 223.258 224.494 247.25 164.475C251.975 155.152 253.637 144.901 254.122 135.104C253.757 124.83 254.932 116.515 230 122C194 138 164 181.598 164 144.216C164 106.834 191.566 83.0001 233.348 83Z" fill="white"/>
<path d="M233.348 83L233.348 81L233.348 81L233.348 83ZM283.604 100.098L282.477 101.75L282.498 101.765L282.52 101.779L283.604 100.098ZM296.112 110.525L294.641 111.881L294.655 111.896L294.67 111.911L296.112 110.525ZM306.044 125.696L304.158 126.362L304.181 126.427L304.209 126.491L306.044 125.696ZM301.638 181.239L303.422 182.143L303.422 182.143L301.638 181.239ZM203.968 217.098L202 217.453L202.199 218.557L203.246 218.963L203.968 217.098ZM247.25 164.475L245.466 163.57L245.426 163.65L245.393 163.732L247.25 164.475ZM254.122 135.104L256.12 135.202L256.124 135.117L256.121 135.032L254.122 135.104ZM230 122L229.57 120.047L229.373 120.09L229.188 120.172L230 122ZM164 144.216L162 144.216V144.216H164ZM218 245V247C233.562 247 246 258.96 246 273.5H248H250C250 256.56 235.575 243 218 243V245ZM248 273.5H246C246 288.04 233.562 300 218 300V302V304C235.575 304 250 290.44 250 273.5H248ZM218 302V300C202.438 300 190 288.04 190 273.5H188H186C186 290.44 200.425 304 218 304V302ZM188 273.5H190C190 258.96 202.438 247 218 247V245V243C200.425 243 186 256.56 186 273.5H188ZM233.348 83V85C248.795 85 267.779 91.7354 282.477 101.75L283.604 100.098L284.73 98.4448C269.527 88.0867 249.773 81 233.348 81V83ZM283.604 100.098L282.52 101.779C287.187 104.788 291.229 108.177 294.641 111.881L296.112 110.525L297.583 109.17C293.927 105.202 289.62 101.598 284.687 98.4168L283.604 100.098ZM296.112 110.525L294.67 111.911C299.136 116.561 302.428 121.46 304.158 126.362L306.044 125.696L307.93 125.031C305.958 119.441 302.288 114.068 297.555 109.14L296.112 110.525ZM306.044 125.696L304.209 126.491C310.899 141.943 309.788 160.736 299.854 180.335L301.638 181.239L303.422 182.143C313.768 161.731 315.143 141.677 307.879 124.902L306.044 125.696ZM301.638 181.239L299.854 180.335C290.755 198.286 280.639 212.179 266.156 219.056C251.742 225.901 232.519 226.01 204.69 215.233L203.968 217.098L203.246 218.963C231.607 229.946 252.072 230.172 267.872 222.67C283.603 215.2 294.227 200.284 303.422 182.143L301.638 181.239ZM203.968 217.098L205.936 216.743C205.2 212.658 204.977 209.87 205.124 207.948C205.269 206.054 205.752 205.241 206.212 204.807C206.725 204.323 207.553 203.977 209.078 203.695C209.824 203.556 210.65 203.446 211.611 203.317C212.554 203.191 213.605 203.049 214.723 202.851C219.273 202.046 224.876 200.322 230.875 194.84C236.822 189.406 243.043 180.388 249.107 165.217L247.25 164.475L245.393 163.732C239.461 178.571 233.528 186.998 228.177 191.887C222.88 196.727 218.043 198.202 214.026 198.913C213.001 199.094 212.027 199.226 211.079 199.353C210.148 199.478 209.214 199.601 208.35 199.762C206.655 200.076 204.856 200.587 203.467 201.898C202.023 203.26 201.324 205.182 201.136 207.643C200.95 210.077 201.244 213.263 202 217.453L203.968 217.098ZM247.25 164.475L249.034 165.379C253.938 155.704 255.628 145.138 256.12 135.202L254.122 135.104L252.125 135.005C251.646 144.664 250.013 154.6 245.466 163.57L247.25 164.475ZM254.122 135.104L256.121 135.032C256.034 132.583 256.036 129.938 255.681 127.645C255.319 125.302 254.542 122.957 252.638 121.18C250.733 119.401 248.002 118.473 244.335 118.291C240.677 118.11 235.877 118.659 229.57 120.047L230 122L230.43 123.953C236.589 122.598 240.992 122.13 244.137 122.286C247.273 122.442 248.946 123.206 249.909 124.104C250.874 125.005 251.429 126.321 251.728 128.256C252.035 130.24 252.028 132.487 252.123 135.175L254.122 135.104ZM230 122L229.188 120.172C219.992 124.259 211.232 130.083 203.32 135.863C195.297 141.725 188.366 147.365 182.369 151.477C179.404 153.509 176.816 155.059 174.612 155.991C172.364 156.941 170.814 157.119 169.776 156.836C168.889 156.594 167.971 155.9 167.23 153.943C166.466 151.923 166 148.799 166 144.216H164H162C162 148.978 162.472 152.669 163.489 155.358C164.529 158.109 166.236 160.017 168.724 160.695C171.061 161.331 173.636 160.746 176.169 159.675C178.746 158.586 181.596 156.857 184.631 154.776C190.634 150.66 197.953 144.738 205.68 139.093C213.518 133.367 222.008 127.741 230.812 123.828L230 122ZM164 144.216L166 144.216C166 126.049 172.681 111.312 184.325 101.093C195.996 90.8507 212.827 85 233.348 85L233.348 83L233.348 81C212.087 81 194.244 87.0664 181.687 98.0865C169.102 109.13 162 125.001 162 144.216L164 144.216Z" fill="#004357" mask="url(#path-5-inside-1_46_755)"/>
<defs>
<filter id="filter0_d_46_755" x="0" y="0" width="444" height="410" filterUnits="userSpaceOnUse" color-interpolation-filters="sRGB">
<feFlood flood-opacity="0" result="BackgroundImageFix"/>
<feColorMatrix in="SourceAlpha" type="matrix" values="0 0 0 0 0 0 0 0 0 0 0 0 0 0 0 0 0 0 127 0" result="hardAlpha"/>
<feOffset dy="4"/>
<feComposite in2="hardAlpha" operator="out"/>
<feColorMatrix type="matrix" values="0 0 0 0 0.85098 0 0 0 0 0.635294 0 0 0 0 0.45098 0 0 0 1 0"/>
<feBlend mode="normal" in2="BackgroundImageFix" result="effect1_dropShadow_46_755"/>
<feBlend mode="normal" in="SourceGraphic" in2="effect1_dropShadow_46_755" result="shape"/>
</filter>
<filter id="filter1_d_46_755" x="30.0002" y="48.0002" width="384" height="316" filterUnits="userSpaceOnUse" color-interpolation-filters="sRGB">
<feFlood flood-opacity="0" result="BackgroundImageFix"/>
<feColorMatrix in="SourceAlpha" type="matrix" values="0 0 0 0 0 0 0 0 0 0 0 0 0 0 0 0 0 0 127 0" result="hardAlpha"/>
<feOffset dy="10"/>
<feComposite in2="hardAlpha" operator="out"/>
<feColorMatrix type="matrix" values="0 0 0 0 0.00605666 0 0 0 0 0.331085 0 0 0 0 0.430007 0 0 0 1 0"/>
<feBlend mode="normal" in2="BackgroundImageFix" result="effect1_dropShadow_46_755"/>
<feBlend mode="normal" in="SourceGraphic" in2="effect1_dropShadow_46_755" result="shape"/>
</filter>
<linearGradient id="paint0_linear_46_755" x1="222" y1="48.0002" x2="331" y2="341" gradientUnits="userSpaceOnUse">
<stop stop-color="#007EA4"/>
<stop offset="1" stop-color="#015BA5"/>
</linearGradient>
</defs>
</svg>
