<svg width="444" height="410" viewBox="0 0 444 410" fill="none" xmlns="http://www.w3.org/2000/svg">
<g filter="url(#filter0_d_14_695)">
<path d="M444 189C444 293.382 397.218 406 284 406C22 406 0 293.382 0 189C0 84.6182 125.782 0 239 0C352.218 0 444 84.6182 444 189Z" fill="#FFF0E7"/>
</g>
<path d="M432 196C456.067 291 395.048 406 282.82 406C23.1139 406 80.6062 340.185 36.0001 239.468C36.0001 135.378 137.773 32 250 32C362.227 32 413 121 432 196Z" fill="#F1BF9E"/>
<path d="M414 176.552C414 261.908 373.541 354 275.622 354C49.0273 354 30.0002 261.908 30.0002 176.552C30.0002 91.1953 138.784 22.0001 236.703 22.0001C334.622 22.0001 414 91.1953 414 176.552Z" fill="#C0ECE8"/>
<g filter="url(#filter1_d_14_695)">
<path d="M414 190.449C414 269.121 373.541 354 275.622 354C49.0273 354 30.0002 269.121 30.0002 190.449C30.0002 111.777 138.784 48.0002 236.703 48.0002C334.622 48.0002 414 111.777 414 190.449Z" fill="url(#paint0_linear_14_695)"/>
</g>
<mask id="path-5-inside-1_14_695" fill="white">
<path d="M228.397 121.129C232.028 98.7989 249.095 93.5548 262.119 100.46C285.465 107.216 320.603 136.737 327.791 174.674C336 217.999 320.049 196.884 320.049 196.884C319.986 196.826 296 174.467 274.832 160.065C270.362 191.753 261.757 228.761 258.788 244.995C253.865 278.911 232.338 292.001 200.498 292.001C168.191 292.001 142 271.89 142 247.084C142 222.277 168.191 202.168 200.498 202.168C207.484 202.168 214.35 202.809 220.785 204.092C222.26 177.506 224.662 144.103 228.397 121.129Z"/>
</mask>
<path d="M228.397 121.129C232.028 98.7989 249.095 93.5548 262.119 100.46C285.465 107.216 320.603 136.737 327.791 174.674C336 217.999 320.049 196.884 320.049 196.884C319.986 196.826 296 174.467 274.832 160.065C270.362 191.753 261.757 228.761 258.788 244.995C253.865 278.911 232.338 292.001 200.498 292.001C168.191 292.001 142 271.89 142 247.084C142 222.277 168.191 202.168 200.498 202.168C207.484 202.168 214.35 202.809 220.785 204.092C222.26 177.506 224.662 144.103 228.397 121.129Z" fill="white"/>
<path d="M228.397 121.129L227.41 120.968L227.41 120.968L228.397 121.129ZM262.119 100.46L261.651 101.343L261.742 101.392L261.841 101.42L262.119 100.46ZM327.791 174.674L328.773 174.488L328.773 174.488L327.791 174.674ZM320.049 196.884L320.847 196.282L320.794 196.212L320.731 196.153L320.049 196.884ZM274.832 160.065L275.394 159.238L274.066 158.335L273.842 159.925L274.832 160.065ZM258.788 244.995L257.804 244.815L257.801 244.833L257.798 244.851L258.788 244.995ZM200.498 292.001L200.498 293.001L200.498 293.001L200.498 292.001ZM142 247.084L141 247.084V247.084H142ZM200.498 202.168L200.498 201.168H200.498V202.168ZM220.785 204.092L220.589 205.073L221.72 205.299L221.783 204.148L220.785 204.092ZM228.397 121.129L229.384 121.289C231.161 110.363 236.187 103.785 242.19 100.722C248.21 97.6506 255.386 98.0221 261.651 101.343L262.119 100.46L262.587 99.5761C255.828 95.9924 247.959 95.5335 241.281 98.9404C234.587 102.356 229.264 109.565 227.41 120.968L228.397 121.129ZM262.119 100.46L261.841 101.42C273.308 104.738 287.784 113.695 300.297 126.571C312.801 139.438 323.26 156.133 326.808 174.861L327.791 174.674L328.773 174.488C325.134 155.278 314.43 138.244 301.731 125.177C289.041 112.119 274.276 102.937 262.397 99.4991L262.119 100.46ZM327.791 174.674L326.808 174.861C328.857 185.673 329.377 192.367 329.048 196.34C328.882 198.333 328.51 199.537 328.094 200.222C327.711 200.852 327.319 201.01 326.952 201.027C326.5 201.048 325.9 200.858 325.178 200.424C324.475 200 323.758 199.407 323.103 198.783C322.451 198.162 321.884 197.534 321.479 197.058C321.277 196.821 321.117 196.624 321.008 196.488C320.953 196.419 320.912 196.366 320.885 196.331C320.871 196.314 320.861 196.3 320.855 196.292C320.851 196.288 320.849 196.285 320.848 196.283C320.847 196.282 320.847 196.282 320.846 196.281C320.846 196.281 320.846 196.281 320.846 196.281C320.846 196.281 320.847 196.282 320.049 196.884C319.251 197.487 319.251 197.488 319.251 197.488C319.252 197.488 319.252 197.489 319.252 197.489C319.253 197.49 319.254 197.492 319.255 197.493C319.258 197.497 319.261 197.501 319.266 197.507C319.275 197.519 319.287 197.535 319.304 197.556C319.336 197.598 319.383 197.658 319.444 197.734C319.565 197.886 319.739 198.1 319.957 198.356C320.392 198.866 321.007 199.549 321.723 200.231C322.435 200.909 323.27 201.61 324.147 202.137C325.006 202.654 326.015 203.073 327.044 203.025C328.158 202.974 329.119 202.387 329.803 201.26C330.454 200.189 330.865 198.625 331.041 196.505C331.394 192.252 330.829 185.338 328.773 174.488L327.791 174.674ZM320.049 196.884L320.731 196.153C320.67 196.097 296.634 173.688 275.394 159.238L274.832 160.065L274.269 160.892C295.367 175.245 319.301 197.555 319.367 197.616L320.049 196.884ZM274.832 160.065L273.842 159.925C269.374 191.598 260.789 228.495 257.804 244.815L258.788 244.995L259.772 245.175C262.724 229.028 271.35 191.909 275.822 160.205L274.832 160.065ZM258.788 244.995L257.798 244.851C255.365 261.614 248.854 273.1 239.136 280.418C229.395 287.752 216.295 291.001 200.498 291.001L200.498 292.001L200.498 293.001C216.541 293.001 230.125 289.705 240.339 282.015C250.574 274.309 257.288 262.292 259.778 245.138L258.788 244.995ZM200.498 292.001V291.001C184.545 291.001 170.139 286.035 159.743 278.051C149.347 270.069 143 259.112 143 247.084H142H141C141 259.862 147.748 271.363 158.525 279.638C169.3 287.912 184.143 293.001 200.498 293.001V292.001ZM142 247.084L143 247.084C143 235.056 149.347 224.098 159.743 216.116C170.139 208.134 184.545 203.168 200.498 203.168V202.168V201.168C184.143 201.168 169.3 206.256 158.525 214.53C147.748 222.804 141 234.305 141 247.084L142 247.084ZM200.498 202.168L200.498 203.168C207.424 203.168 214.224 203.804 220.589 205.073L220.785 204.092L220.981 203.112C214.476 201.814 207.544 201.168 200.498 201.168L200.498 202.168ZM220.785 204.092L221.783 204.148C223.258 177.56 225.658 144.206 229.384 121.289L228.397 121.129L227.41 120.968C223.665 144.001 221.261 177.451 219.787 204.037L220.785 204.092Z" fill="#0455AE" mask="url(#path-5-inside-1_14_695)"/>
<defs>
<filter id="filter0_d_14_695" x="0" y="0" width="444" height="410" filterUnits="userSpaceOnUse" color-interpolation-filters="sRGB">
<feFlood flood-opacity="0" result="BackgroundImageFix"/>
<feColorMatrix in="SourceAlpha" type="matrix" values="0 0 0 0 0 0 0 0 0 0 0 0 0 0 0 0 0 0 127 0" result="hardAlpha"/>
<feOffset dy="4"/>
<feComposite in2="hardAlpha" operator="out"/>
<feColorMatrix type="matrix" values="0 0 0 0 0.85098 0 0 0 0 0.635294 0 0 0 0 0.45098 0 0 0 1 0"/>
<feBlend mode="normal" in2="BackgroundImageFix" result="effect1_dropShadow_14_695"/>
<feBlend mode="normal" in="SourceGraphic" in2="effect1_dropShadow_14_695" result="shape"/>
</filter>
<filter id="filter1_d_14_695" x="30.0002" y="48.0002" width="384" height="316" filterUnits="userSpaceOnUse" color-interpolation-filters="sRGB">
<feFlood flood-opacity="0" result="BackgroundImageFix"/>
<feColorMatrix in="SourceAlpha" type="matrix" values="0 0 0 0 0 0 0 0 0 0 0 0 0 0 0 0 0 0 127 0" result="hardAlpha"/>
<feOffset dy="10"/>
<feComposite in2="hardAlpha" operator="out"/>
<feColorMatrix type="matrix" values="0 0 0 0 0.00392157 0 0 0 0 0.356863 0 0 0 0 0.647059 0 0 0 1 0"/>
<feBlend mode="normal" in2="BackgroundImageFix" result="effect1_dropShadow_14_695"/>
<feBlend mode="normal" in="SourceGraphic" in2="effect1_dropShadow_14_695" result="shape"/>
</filter>
<linearGradient id="paint0_linear_14_695" x1="222" y1="48.0002" x2="331" y2="341" gradientUnits="userSpaceOnUse">
<stop stop-color="#2FDFCD"/>
<stop offset="1" stop-color="#00AFA0"/>
</linearGradient>
</defs>
</svg>
