<svg width="444" height="410" viewBox="0 0 444 410" fill="none" xmlns="http://www.w3.org/2000/svg">
<g filter="url(#filter0_d_47_781)">
<path d="M444 189C444 293.382 397.218 406 284 406C22 406 0 293.382 0 189C0 84.6182 125.782 0 239 0C352.218 0 444 84.6182 444 189Z" fill="#FFF0E7"/>
</g>
<path d="M432 196C456.067 291 395.048 406 282.82 406C23.1138 406 80.6062 340.185 36.0001 239.468C36.0001 135.378 137.773 32 250 32C362.227 32 413 121 432 196Z" fill="#F1BF9E"/>
<path d="M414 176.552C414 261.908 373.541 354 275.622 354C49.0273 354 30.0002 261.908 30.0002 176.552C30.0002 91.1953 138.784 22.0001 236.703 22.0001C334.622 22.0001 414 91.1953 414 176.552Z" fill="#C0ECE8"/>
<g filter="url(#filter1_d_47_781)">
<path d="M414 190.449C414 269.121 373.541 354 275.622 354C49.0273 354 30.0002 269.121 30.0002 190.449C30.0002 111.777 138.784 48.0002 236.703 48.0002C334.622 48.0002 414 111.777 414 190.449Z" fill="url(#paint0_linear_47_781)"/>
</g>
<mask id="path-5-inside-1_47_781" fill="white">
<path d="M219.333 111.485C222.961 86.3275 240.016 80.4189 253.03 88.1984C276.359 95.8102 311.471 129.072 318.653 171.814C326.856 220.626 310.916 196.837 310.916 196.837C310.825 196.741 286.873 171.57 265.733 155.354C263.616 172.278 260.569 190.548 257.634 207.034C275.628 235.045 291.548 260.721 299.188 272.193C315.069 296.046 291.36 314.584 274.779 292.879C269.484 285.948 259.99 273.538 248.506 258.336C241.884 291.144 221.161 304 191.454 304C159.171 304 133 281.343 133 253.395C133 225.446 159.171 202.789 191.454 202.789C197.195 202.789 202.854 203.279 208.26 204.257C193.969 184.692 180.064 165.159 169.334 149.043C138.233 102.333 168.218 83.1405 199.927 123.117C204.783 129.24 210.107 136.424 215.699 144.287C216.741 132.393 217.943 121.125 219.333 111.485Z"/>
</mask>
<path d="M219.333 111.485C222.961 86.3275 240.016 80.4189 253.03 88.1984C276.359 95.8102 311.471 129.072 318.653 171.814C326.856 220.626 310.916 196.837 310.916 196.837C310.825 196.741 286.873 171.57 265.733 155.354C263.616 172.278 260.569 190.548 257.634 207.034C275.628 235.045 291.548 260.721 299.188 272.193C315.069 296.046 291.36 314.584 274.779 292.879C269.484 285.948 259.99 273.538 248.506 258.336C241.884 291.144 221.161 304 191.454 304C159.171 304 133 281.343 133 253.395C133 225.446 159.171 202.789 191.454 202.789C197.195 202.789 202.854 203.279 208.26 204.257C193.969 184.692 180.064 165.159 169.334 149.043C138.233 102.333 168.218 83.1405 199.927 123.117C204.783 129.24 210.107 136.424 215.699 144.287C216.741 132.393 217.943 121.125 219.333 111.485Z" fill="white"/>
<path d="M219.333 111.485L218.343 111.343L218.343 111.343L219.333 111.485ZM253.03 88.1984L252.517 89.0567L252.613 89.1142L252.72 89.149L253.03 88.1984ZM318.653 171.814L319.639 171.648L319.639 171.648L318.653 171.814ZM310.916 196.837L311.747 196.28L311.699 196.21L311.641 196.148L310.916 196.837ZM265.733 155.354L266.342 154.56L264.958 153.498L264.741 155.23L265.733 155.354ZM257.634 207.034L256.649 206.859L256.581 207.245L256.792 207.575L257.634 207.034ZM299.188 272.193L298.355 272.748L298.355 272.748L299.188 272.193ZM274.779 292.879L273.985 293.486L273.985 293.486L274.779 292.879ZM248.506 258.336L249.304 257.733L247.965 255.961L247.526 258.138L248.506 258.336ZM191.454 304L191.454 305H191.454V304ZM133 253.395L132 253.395L132 253.395L133 253.395ZM191.454 202.789L191.454 201.789L191.454 201.789L191.454 202.789ZM208.26 204.257L208.082 205.241L210.542 205.686L209.067 203.667L208.26 204.257ZM169.334 149.043L168.502 149.597L168.502 149.597L169.334 149.043ZM199.927 123.117L200.71 122.496L200.71 122.496L199.927 123.117ZM215.699 144.287L214.884 144.867L216.458 147.08L216.695 144.374L215.699 144.287ZM219.333 111.485L220.323 111.628C222.108 99.2455 227.164 91.8064 233.16 88.3572C239.147 84.9135 246.275 85.3252 252.517 89.0567L253.03 88.1984L253.543 87.34C246.771 83.292 238.865 82.7682 232.163 86.6235C225.471 90.4732 220.185 98.5674 218.343 111.343L219.333 111.485ZM253.03 88.1984L252.72 89.149C264.161 92.8821 278.627 102.968 291.139 117.485C303.639 131.987 314.112 150.825 317.667 171.979L318.653 171.814L319.639 171.648C316.012 150.06 305.338 130.896 292.654 116.179C279.983 101.477 265.228 91.1265 253.34 87.2477L253.03 88.1984ZM318.653 171.814L317.667 171.979C319.715 184.165 320.239 191.733 319.908 196.243C319.741 198.507 319.365 199.901 318.93 200.707C318.521 201.466 318.121 201.615 317.809 201.631C317.394 201.653 316.814 201.455 316.088 200.962C315.386 200.486 314.668 199.816 314.01 199.11C313.357 198.409 312.789 197.698 312.383 197.161C312.18 196.893 312.019 196.67 311.91 196.515C311.855 196.438 311.813 196.378 311.786 196.337C311.772 196.317 311.762 196.302 311.755 196.293C311.752 196.288 311.749 196.284 311.748 196.282C311.747 196.281 311.747 196.281 311.747 196.28C311.747 196.28 311.747 196.28 311.747 196.28C311.747 196.28 311.747 196.28 310.916 196.837C310.085 197.394 310.086 197.394 310.086 197.395C310.086 197.395 310.086 197.395 310.087 197.396C310.088 197.397 310.089 197.399 310.09 197.4C310.092 197.404 310.096 197.409 310.1 197.415C310.109 197.428 310.121 197.447 310.137 197.47C310.17 197.517 310.216 197.585 310.276 197.67C310.397 197.839 310.57 198.08 310.787 198.367C311.22 198.94 311.833 199.707 312.547 200.473C313.255 201.234 314.089 202.023 314.966 202.617C315.819 203.197 316.847 203.684 317.913 203.629C319.08 203.568 320.032 202.877 320.69 201.657C321.322 200.484 321.728 198.76 321.902 196.39C322.252 191.631 321.693 183.868 319.639 171.648L318.653 171.814ZM310.916 196.837L311.641 196.148C311.553 196.055 287.552 170.83 266.342 154.56L265.733 155.354L265.125 156.147C286.195 172.309 310.097 197.427 310.191 197.526L310.916 196.837ZM265.733 155.354L264.741 155.23C262.627 172.128 259.584 190.378 256.649 206.859L257.634 207.034L258.618 207.21C261.555 190.718 264.605 172.428 266.726 155.478L265.733 155.354ZM257.634 207.034L256.792 207.575C274.769 235.558 290.712 261.269 298.355 272.748L299.188 272.193L300.02 271.639C292.385 260.172 276.488 234.532 258.475 206.494L257.634 207.034ZM299.188 272.193L298.355 272.748C306.113 284.399 304.012 294.372 298.525 298.845C295.761 301.098 292.053 302.059 288.035 301.181C284.01 300.301 279.61 297.555 275.574 292.272L274.779 292.879L273.985 293.486C278.239 299.055 283.02 302.132 287.608 303.135C292.203 304.14 296.538 303.045 299.789 300.395C306.331 295.062 308.144 283.84 300.02 271.639L299.188 272.193ZM274.779 292.879L275.574 292.272C270.279 285.34 260.787 272.933 249.304 257.733L248.506 258.336L247.708 258.939C259.194 274.144 268.69 286.555 273.985 293.486L274.779 292.879ZM248.506 258.336L247.526 258.138C244.251 274.364 237.517 285.538 228.036 292.672C218.542 299.815 206.172 303 191.454 303V304V305C206.444 305 219.288 301.757 229.238 294.27C239.2 286.774 246.139 275.117 249.486 258.534L248.506 258.336ZM191.454 304L191.454 303C159.583 303 134 280.66 134 253.395L133 253.395L132 253.395C132 282.026 158.759 305 191.454 305L191.454 304ZM133 253.395H134C134 226.129 159.583 203.789 191.454 203.789L191.454 202.789L191.454 201.789C158.759 201.789 132 224.763 132 253.395H133ZM191.454 202.789V203.789C197.139 203.789 202.738 204.275 208.082 205.241L208.26 204.257L208.438 203.273C202.97 202.284 197.251 201.789 191.454 201.789V202.789ZM208.26 204.257L209.067 203.667C194.779 184.106 180.885 164.587 170.166 148.489L169.334 149.043L168.502 149.597C179.244 165.731 193.158 185.277 207.452 204.847L208.26 204.257ZM169.334 149.043L170.166 148.489C162.441 136.887 158.564 127.072 157.525 119.528C156.482 111.961 158.304 106.884 161.674 104.375C165.045 101.863 170.362 101.627 176.981 104.644C183.577 107.651 191.279 113.824 199.143 123.739L199.927 123.117L200.71 122.496C192.72 112.422 184.783 106.003 177.81 102.824C170.861 99.6566 164.68 99.6418 160.479 102.771C156.276 105.901 154.452 111.882 155.544 119.801C156.638 127.744 160.676 137.844 168.502 149.597L169.334 149.043ZM199.927 123.117L199.143 123.739C203.985 129.843 209.298 137.013 214.884 144.867L215.699 144.287L216.514 143.708C210.916 135.836 205.581 128.636 200.71 122.496L199.927 123.117ZM215.699 144.287L216.695 144.374C217.736 132.49 218.936 121.242 220.323 111.628L219.333 111.485L218.343 111.343C216.95 121.007 215.745 132.296 214.703 144.2L215.699 144.287Z" fill="#015BA5" mask="url(#path-5-inside-1_47_781)"/>
<defs>
<filter id="filter0_d_47_781" x="0" y="0" width="444" height="410" filterUnits="userSpaceOnUse" color-interpolation-filters="sRGB">
<feFlood flood-opacity="0" result="BackgroundImageFix"/>
<feColorMatrix in="SourceAlpha" type="matrix" values="0 0 0 0 0 0 0 0 0 0 0 0 0 0 0 0 0 0 127 0" result="hardAlpha"/>
<feOffset dy="4"/>
<feComposite in2="hardAlpha" operator="out"/>
<feColorMatrix type="matrix" values="0 0 0 0 0.85098 0 0 0 0 0.635294 0 0 0 0 0.45098 0 0 0 1 0"/>
<feBlend mode="normal" in2="BackgroundImageFix" result="effect1_dropShadow_47_781"/>
<feBlend mode="normal" in="SourceGraphic" in2="effect1_dropShadow_47_781" result="shape"/>
</filter>
<filter id="filter1_d_47_781" x="30.0002" y="48.0002" width="384" height="316" filterUnits="userSpaceOnUse" color-interpolation-filters="sRGB">
<feFlood flood-opacity="0" result="BackgroundImageFix"/>
<feColorMatrix in="SourceAlpha" type="matrix" values="0 0 0 0 0 0 0 0 0 0 0 0 0 0 0 0 0 0 127 0" result="hardAlpha"/>
<feOffset dy="10"/>
<feComposite in2="hardAlpha" operator="out"/>
<feColorMatrix type="matrix" values="0 0 0 0 0.00392157 0 0 0 0 0.356863 0 0 0 0 0.647059 0 0 0 1 0"/>
<feBlend mode="normal" in2="BackgroundImageFix" result="effect1_dropShadow_47_781"/>
<feBlend mode="normal" in="SourceGraphic" in2="effect1_dropShadow_47_781" result="shape"/>
</filter>
<linearGradient id="paint0_linear_47_781" x1="222" y1="48.0002" x2="331" y2="341" gradientUnits="userSpaceOnUse">
<stop stop-color="#2FDFCD"/>
<stop offset="1" stop-color="#00AFA0"/>
</linearGradient>
</defs>
</svg>
