<svg width="428" height="410" viewBox="0 0 428 410" fill="none" xmlns="http://www.w3.org/2000/svg">
<g filter="url(#filter0_d_14_714)">
<path d="M427.166 189C427.166 293.382 382.158 406 273.232 406C21.1659 406 0 293.382 0 189C0 84.6182 121.013 0 229.938 0C338.864 0 427.166 84.6182 427.166 189Z" fill="#FFF0E7"/>
</g>
<path d="M415.621 196C438.775 291 380.07 406 272.098 406C22.2376 406 77.5501 340.185 34.6353 239.468C34.6353 135.378 132.549 32 240.522 32C348.494 32 397.342 121 415.621 196Z" fill="#F1BF9E"/>
<path d="M398.304 176.551C398.304 261.908 359.378 354 265.172 354C47.1684 354 28.8628 261.908 28.8628 176.551C28.8628 91.1949 133.522 21.9998 227.728 21.9998C321.935 21.9998 398.304 91.1949 398.304 176.551Z" fill="#FFDD5D"/>
<g filter="url(#filter1_d_14_714)">
<path d="M398.304 190.449C398.304 269.121 359.378 354 265.172 354C47.1684 354 28.8628 269.121 28.8628 190.449C28.8628 111.777 133.522 48.0002 227.728 48.0002C321.935 48.0002 398.304 111.777 398.304 190.449Z" fill="url(#paint0_linear_14_714)"/>
</g>
<mask id="path-5-inside-1_14_714" fill="white">
<path d="M326.847 210.883C323.46 251.965 198.946 315.467 177.451 298.913C168.375 291.922 163.052 274.993 161.38 251.593C140.749 259.869 116.662 257.044 109.555 252.885C96.6522 245.335 94.4834 209.233 103.493 167.635C109.143 141.552 144.241 138.971 169.01 155.388C170.68 146.455 172.599 137.333 174.771 128.088C194.036 46.1119 330.233 169.8 326.847 210.883Z"/>
</mask>
<path d="M326.847 210.883C323.46 251.965 198.946 315.467 177.451 298.913C168.375 291.922 163.052 274.993 161.38 251.593C140.749 259.869 116.662 257.044 109.555 252.885C96.6522 245.335 94.4834 209.233 103.493 167.635C109.143 141.552 144.241 138.971 169.01 155.388C170.68 146.455 172.599 137.333 174.771 128.088C194.036 46.1119 330.233 169.8 326.847 210.883Z" fill="white"/>
<path d="M326.847 210.883L328.84 211.047L328.84 211.047L326.847 210.883ZM177.451 298.913L176.231 300.497L176.231 300.497L177.451 298.913ZM161.38 251.593L163.375 251.45L163.18 248.716L160.636 249.737L161.38 251.593ZM109.555 252.885L108.545 254.611L108.545 254.611L109.555 252.885ZM103.493 167.635L101.539 167.211L101.539 167.211L103.493 167.635ZM169.01 155.388L167.906 157.055L170.422 158.723L170.976 155.755L169.01 155.388ZM174.771 128.088L172.824 127.631L172.824 127.631L174.771 128.088ZM326.847 210.883L324.854 210.718C324.468 215.391 322.34 220.55 318.675 226.027C315.019 231.491 309.912 237.157 303.744 242.824C291.409 254.158 274.997 265.342 257.971 274.761C240.946 284.18 223.4 291.782 208.83 295.998C201.539 298.107 195.068 299.347 189.818 299.57C184.489 299.796 180.788 298.958 178.672 297.328L177.451 298.913L176.231 300.497C179.488 303.006 184.38 303.805 189.988 303.566C195.675 303.325 202.484 301.998 209.942 299.84C224.87 295.521 242.694 287.784 259.908 278.261C277.121 268.739 293.816 257.379 306.451 245.77C312.768 239.965 318.113 234.06 321.999 228.252C325.876 222.458 328.379 216.645 328.84 211.047L326.847 210.883ZM177.451 298.913L178.672 297.328C174.582 294.178 171.151 288.626 168.537 280.775C165.933 272.954 164.204 263.05 163.375 251.45L161.38 251.593L159.385 251.736C160.229 263.536 161.997 273.797 164.742 282.038C167.476 290.249 171.245 296.657 176.231 300.497L177.451 298.913ZM161.38 251.593L160.636 249.737C150.626 253.752 139.725 255.09 130.436 254.902C125.798 254.809 121.596 254.335 118.144 253.641C114.653 252.938 112.064 252.036 110.565 251.159L109.555 252.885L108.545 254.611C110.599 255.813 113.686 256.824 117.355 257.562C121.063 258.308 125.505 258.803 130.356 258.901C140.045 259.097 151.504 257.71 162.125 253.449L161.38 251.593ZM109.555 252.885L110.565 251.159C107.909 249.604 105.575 246.428 103.774 241.538C101.985 236.681 100.809 230.364 100.302 222.893C99.2895 207.959 100.971 188.728 105.448 168.058L103.493 167.635L101.539 167.211C97.0057 188.14 95.2667 207.759 96.3114 223.163C96.8335 230.861 98.0556 237.585 100.021 242.92C101.973 248.222 104.749 252.39 108.545 254.611L109.555 252.885ZM103.493 167.635L105.448 168.058C108.053 156.032 117.396 149.318 129.374 147.553C141.414 145.778 155.889 149.091 167.906 157.055L169.01 155.388L170.115 153.721C157.363 145.269 141.904 141.663 128.79 143.595C115.614 145.537 104.584 153.154 101.539 167.211L103.493 167.635ZM169.01 155.388L170.976 155.755C172.64 146.853 174.553 137.761 176.718 128.546L174.771 128.088L172.824 127.631C170.645 136.905 168.719 146.058 167.045 155.02L169.01 155.388ZM174.771 128.088L176.718 128.546C179.055 118.602 183.105 112.022 188.214 107.995C193.312 103.977 199.691 102.323 207.045 102.662C221.877 103.344 240.21 112.123 258.139 124.964C276.001 137.759 293.172 154.377 305.648 170.319C311.886 178.29 316.915 186.048 320.272 193.034C323.652 200.068 325.234 206.108 324.854 210.718L326.847 210.883L328.84 211.047C329.307 205.387 327.373 198.575 323.878 191.301C320.359 183.98 315.153 175.975 308.798 167.854C296.087 151.612 278.639 134.728 260.468 121.713C242.362 108.744 223.245 99.403 207.228 98.6659C199.157 98.2945 191.762 100.106 185.738 104.854C179.724 109.593 175.304 117.08 172.824 127.631L174.771 128.088Z" fill="#FC5400" mask="url(#path-5-inside-1_14_714)"/>
<defs>
<filter id="filter0_d_14_714" x="0" y="0" width="427.166" height="410" filterUnits="userSpaceOnUse" color-interpolation-filters="sRGB">
<feFlood flood-opacity="0" result="BackgroundImageFix"/>
<feColorMatrix in="SourceAlpha" type="matrix" values="0 0 0 0 0 0 0 0 0 0 0 0 0 0 0 0 0 0 127 0" result="hardAlpha"/>
<feOffset dy="4"/>
<feComposite in2="hardAlpha" operator="out"/>
<feColorMatrix type="matrix" values="0 0 0 0 0.85098 0 0 0 0 0.635294 0 0 0 0 0.45098 0 0 0 1 0"/>
<feBlend mode="normal" in2="BackgroundImageFix" result="effect1_dropShadow_14_714"/>
<feBlend mode="normal" in="SourceGraphic" in2="effect1_dropShadow_14_714" result="shape"/>
</filter>
<filter id="filter1_d_14_714" x="28.8628" y="48.0002" width="369.441" height="316" filterUnits="userSpaceOnUse" color-interpolation-filters="sRGB">
<feFlood flood-opacity="0" result="BackgroundImageFix"/>
<feColorMatrix in="SourceAlpha" type="matrix" values="0 0 0 0 0 0 0 0 0 0 0 0 0 0 0 0 0 0 127 0" result="hardAlpha"/>
<feOffset dy="10"/>
<feComposite in2="hardAlpha" operator="out"/>
<feColorMatrix type="matrix" values="0 0 0 0 1 0 0 0 0 0.368627 0 0 0 0 0.0431373 0 0 0 1 0"/>
<feBlend mode="normal" in2="BackgroundImageFix" result="effect1_dropShadow_14_714"/>
<feBlend mode="normal" in="SourceGraphic" in2="effect1_dropShadow_14_714" result="shape"/>
</filter>
<linearGradient id="paint0_linear_14_714" x1="213.583" y1="48.0002" x2="325.783" y2="338.165" gradientUnits="userSpaceOnUse">
<stop stop-color="#FFBD2F"/>
<stop offset="1" stop-color="#FD8843"/>
</linearGradient>
</defs>
</svg>
