<svg width="444" height="410" viewBox="0 0 444 410" fill="none" xmlns="http://www.w3.org/2000/svg">
<g filter="url(#filter0_d_14_737)">
<path d="M444 189C444 293.382 397.218 406 284 406C22 406 0 293.382 0 189C0 84.6182 125.782 0 239 0C352.218 0 444 84.6182 444 189Z" fill="#FFF0E7"/>
</g>
<path d="M432 196C456.066 291 395.047 406 282.82 406C23.1136 406 80.6059 340.185 35.9998 239.468C35.9998 135.378 137.772 32 250 32C362.227 32 413 121 432 196Z" fill="#F1BF9E"/>
<path d="M414 176.552C414 261.909 373.54 354 275.621 354C49.0269 354 29.9998 261.909 29.9998 176.552C29.9998 91.1954 138.784 22.0002 236.703 22.0002C334.621 22.0002 414 91.1954 414 176.552Z" fill="#FFDD5D"/>
<g filter="url(#filter1_d_14_737)">
<path d="M414 190.448C414 269.12 373.54 354 275.621 354C49.0269 354 29.9998 269.12 29.9998 190.448C29.9998 111.776 138.784 47.9998 236.703 47.9998C334.621 47.9998 414 111.776 414 190.448Z" fill="url(#paint0_linear_14_737)"/>
</g>
<mask id="path-5-inside-1_14_737" fill="white">
<path d="M230.182 80.5418C270.912 79.4 347.057 187.812 333.172 209.388C329.954 214.389 323.67 218.655 314.885 222.145C309.645 245.094 303.29 266.924 300.717 275.866C296.293 291.24 236.961 289.04 237.922 272.82C238.357 265.497 239.662 250.477 240.948 233.335C236.62 233.429 232.191 233.462 227.673 233.433C226.769 252.873 224.298 271.401 224.298 279.322C224.297 293.86 165.311 293.254 161.827 279.322C159.628 270.528 153.901 247.976 149.975 225.379C98.8197 200.052 192.55 81.5972 230.182 80.5418Z"/>
</mask>
<path d="M230.182 80.5418C270.912 79.4 347.057 187.812 333.172 209.388C329.954 214.389 323.67 218.655 314.885 222.145C309.645 245.094 303.29 266.924 300.717 275.866C296.293 291.24 236.961 289.04 237.922 272.82C238.357 265.497 239.662 250.477 240.948 233.335C236.62 233.429 232.191 233.462 227.673 233.433C226.769 252.873 224.298 271.401 224.298 279.322C224.297 293.86 165.311 293.254 161.827 279.322C159.628 270.528 153.901 247.976 149.975 225.379C98.8197 200.052 192.55 81.5972 230.182 80.5418Z" fill="white"/>
<path d="M230.182 80.5418L230.126 78.5426L230.126 78.5426L230.182 80.5418ZM333.172 209.388L334.854 210.471L334.854 210.471L333.172 209.388ZM314.885 222.145L314.147 220.287L313.169 220.675L312.935 221.7L314.885 222.145ZM300.717 275.866L302.639 276.419L302.639 276.419L300.717 275.866ZM237.922 272.82L235.926 272.702L235.926 272.702L237.922 272.82ZM240.948 233.335L242.942 233.484L243.107 231.287L240.904 231.335L240.948 233.335ZM227.673 233.433L227.686 231.433L225.765 231.421L225.675 233.34L227.673 233.433ZM224.298 279.322L226.298 279.322L226.298 279.322L224.298 279.322ZM161.827 279.322L159.886 279.807L159.886 279.807L161.827 279.322ZM149.975 225.379L151.945 225.036L151.772 224.037L150.862 223.586L149.975 225.379ZM230.182 80.5418L230.238 82.541C239.646 82.2773 251.548 88.4101 264.144 98.7067C276.637 108.919 289.432 122.91 300.562 137.651C311.692 152.393 321.092 167.798 326.836 180.801C329.711 187.309 331.636 193.139 332.431 197.937C333.239 202.813 332.817 206.245 331.49 208.306L333.172 209.388L334.854 210.471C336.999 207.138 337.235 202.463 336.377 197.284C335.506 192.028 333.442 185.857 330.495 179.185C324.594 165.828 315.015 150.156 303.754 135.241C292.492 120.324 279.481 106.078 266.676 95.6098C253.973 85.226 241.083 78.2354 230.126 78.5426L230.182 80.5418ZM333.172 209.388L331.49 208.306C328.607 212.786 322.786 216.854 314.147 220.287L314.885 222.145L315.624 224.004C324.553 220.456 331.301 215.991 334.854 210.471L333.172 209.388ZM314.885 222.145L312.935 221.7C307.709 244.587 301.369 266.366 298.795 275.313L300.717 275.866L302.639 276.419C305.21 267.482 311.581 245.602 316.835 222.591L314.885 222.145ZM300.717 275.866L298.795 275.313C298.415 276.636 297.396 277.938 295.59 279.157C293.787 280.374 291.332 281.412 288.372 282.229C282.456 283.861 274.873 284.514 267.386 284.192C259.889 283.87 252.673 282.579 247.463 280.449C244.854 279.383 242.873 278.156 241.597 276.844C240.354 275.566 239.839 274.282 239.919 272.938L237.922 272.82L235.926 272.702C235.765 275.414 236.894 277.746 238.729 279.633C240.531 281.486 243.062 282.972 245.949 284.152C251.732 286.516 259.446 287.855 267.214 288.189C274.993 288.523 283.012 287.857 289.436 286.085C292.645 285.199 295.544 284.014 297.828 282.472C300.111 280.931 301.914 278.94 302.639 276.419L300.717 275.866ZM237.922 272.82L239.919 272.938C240.352 265.633 241.652 250.675 242.942 233.484L240.948 233.335L238.953 233.185C237.671 250.28 236.361 265.361 235.926 272.702L237.922 272.82ZM240.948 233.335L240.904 231.335C236.596 231.429 232.186 231.462 227.686 231.433L227.673 233.433L227.661 235.433C232.197 235.462 236.644 235.429 240.991 235.334L240.948 233.335ZM227.673 233.433L225.675 233.34C225.226 243.011 224.386 252.463 223.655 260.516C222.929 268.511 222.298 275.246 222.298 279.322L224.298 279.322L226.298 279.322C226.298 275.478 226.903 268.987 227.639 260.878C228.369 252.827 229.217 243.295 229.671 233.526L227.673 233.433ZM224.298 279.322L222.298 279.322C222.298 280.374 221.791 281.437 220.477 282.53C219.135 283.647 217.089 284.663 214.422 285.508C209.105 287.193 201.848 288.036 194.379 287.999C186.917 287.961 179.416 287.047 173.627 285.327C170.729 284.466 168.35 283.429 166.635 282.264C164.905 281.09 164.037 279.918 163.767 278.837L161.827 279.322L159.886 279.807C160.487 282.209 162.224 284.104 164.388 285.573C166.565 287.051 169.367 288.234 172.488 289.161C178.739 291.019 186.638 291.96 194.359 291.998C202.071 292.037 209.779 291.176 215.631 289.321C218.548 288.396 221.138 287.184 223.036 285.605C224.961 284.003 226.298 281.905 226.298 279.322L224.298 279.322ZM161.827 279.322L163.767 278.837C161.566 270.034 155.857 247.551 151.945 225.036L149.975 225.379L148.005 225.721C151.945 248.401 157.69 271.021 159.886 279.807L161.827 279.322ZM149.975 225.379L150.862 223.586C144.892 220.63 141.118 216.374 139.048 211.186C136.96 205.95 136.555 199.623 137.612 192.506C139.732 178.239 147.651 161.311 158.452 144.961C169.231 128.644 182.761 113.084 195.899 101.56C202.467 95.7977 208.901 91.0772 214.809 87.7753C220.749 84.4551 225.999 82.6599 230.238 82.541L230.182 80.5418L230.126 78.5426C224.957 78.6875 219.046 80.8249 212.857 84.2837C206.636 87.7608 199.972 92.6656 193.261 98.5528C179.838 110.327 166.077 126.162 155.114 142.756C144.173 159.318 135.899 176.818 133.656 191.918C132.532 199.484 132.903 206.574 135.333 212.668C137.782 218.81 142.269 223.795 149.088 227.171L149.975 225.379Z" fill="#FC5400" mask="url(#path-5-inside-1_14_737)"/>
<defs>
<filter id="filter0_d_14_737" x="0" y="0" width="444" height="410" filterUnits="userSpaceOnUse" color-interpolation-filters="sRGB">
<feFlood flood-opacity="0" result="BackgroundImageFix"/>
<feColorMatrix in="SourceAlpha" type="matrix" values="0 0 0 0 0 0 0 0 0 0 0 0 0 0 0 0 0 0 127 0" result="hardAlpha"/>
<feOffset dy="4"/>
<feComposite in2="hardAlpha" operator="out"/>
<feColorMatrix type="matrix" values="0 0 0 0 0.85098 0 0 0 0 0.635294 0 0 0 0 0.45098 0 0 0 1 0"/>
<feBlend mode="normal" in2="BackgroundImageFix" result="effect1_dropShadow_14_737"/>
<feBlend mode="normal" in="SourceGraphic" in2="effect1_dropShadow_14_737" result="shape"/>
</filter>
<filter id="filter1_d_14_737" x="29.9998" y="47.9998" width="384" height="316" filterUnits="userSpaceOnUse" color-interpolation-filters="sRGB">
<feFlood flood-opacity="0" result="BackgroundImageFix"/>
<feColorMatrix in="SourceAlpha" type="matrix" values="0 0 0 0 0 0 0 0 0 0 0 0 0 0 0 0 0 0 127 0" result="hardAlpha"/>
<feOffset dy="10"/>
<feComposite in2="hardAlpha" operator="out"/>
<feColorMatrix type="matrix" values="0 0 0 0 1 0 0 0 0 0.368627 0 0 0 0 0.0431373 0 0 0 1 0"/>
<feBlend mode="normal" in2="BackgroundImageFix" result="effect1_dropShadow_14_737"/>
<feBlend mode="normal" in="SourceGraphic" in2="effect1_dropShadow_14_737" result="shape"/>
</filter>
<linearGradient id="paint0_linear_14_737" x1="222" y1="47.9998" x2="331" y2="341" gradientUnits="userSpaceOnUse">
<stop stop-color="#FFBD2F"/>
<stop offset="1" stop-color="#FD8843"/>
</linearGradient>
</defs>
</svg>
