<svg width="461" height="425" viewBox="0 0 461 425" fill="none" xmlns="http://www.w3.org/2000/svg">
<g filter="url(#filter0_d_31_747)">
<path d="M460.404 195.983C460.404 304.221 411.894 421 294.493 421C22.8128 421 0 304.221 0 195.983C0 87.7445 130.429 0 247.83 0C365.231 0 460.404 87.7445 460.404 195.983Z" fill="#FFF0E7"/>
</g>
<path d="M447.961 203.241C472.916 301.751 409.643 421 293.269 421C23.9677 421 83.5842 352.753 37.3301 248.315C37.3301 140.38 142.863 33.1823 259.236 33.1823C375.61 33.1823 428.259 125.47 447.961 203.241Z" fill="#F1BF9E"/>
<path d="M429.296 183.075C429.296 271.585 387.341 367.079 285.805 367.079C50.8384 367.079 31.1084 271.585 31.1084 183.075C31.1084 94.5645 143.912 22.8129 245.448 22.8129C346.984 22.8129 429.296 94.5645 429.296 183.075Z" fill="#FFDD5D"/>
<g filter="url(#filter1_d_31_747)">
<path d="M429.296 197.485C429.296 279.063 387.341 367.079 285.805 367.079C50.8384 367.079 31.1084 279.063 31.1084 197.485C31.1084 115.906 143.912 49.7734 245.448 49.7734C346.984 49.7734 429.296 115.906 429.296 197.485Z" fill="url(#paint0_linear_31_747)"/>
</g>
<path d="M187.063 110.932C197.695 111.16 208.608 113.961 217.437 119.136C226.262 124.308 232.95 131.813 235.292 141.448C240.1 161.218 240.112 190.278 238.9 217.279C238.295 230.761 237.387 243.695 236.629 254.659C235.873 265.605 235.264 274.626 235.264 280.23C235.264 285.171 231.468 289.032 225.093 291.689C218.76 294.328 210.2 295.622 201.451 295.565C192.706 295.507 183.875 294.1 177.014 291.419C170.092 288.714 165.479 284.842 164.567 280.043C160.507 258.687 146.172 184.654 146.172 141.211C146.172 130.686 151.067 123.05 158.595 118.064C166.163 113.051 176.424 110.703 187.063 110.932Z" fill="white" stroke="#FC5400" stroke-width="2"/>
<path d="M301.031 134.948C290.28 134.443 279.539 136.2 271.542 140.257C263.692 144.239 258.597 150.358 258.488 158.696L258.488 159.095C258.706 195.285 252.977 257.969 251.932 276.698C251.708 280.722 254.986 284.146 260.912 286.722C266.757 289.262 274.766 290.773 283.015 291.15C291.26 291.527 299.65 290.766 306.243 288.832C309.54 287.864 312.344 286.616 314.45 285.104C316.554 283.594 317.911 281.86 318.435 279.921C323.27 262.051 340.255 200.179 342.301 163.479C342.788 154.747 337.961 147.908 330.196 143.067C322.413 138.215 311.781 135.454 301.031 134.948Z" fill="white" stroke="#FC5400" stroke-width="2"/>
<defs>
<filter id="filter0_d_31_747" x="0" y="0" width="460.404" height="425" filterUnits="userSpaceOnUse" color-interpolation-filters="sRGB">
<feFlood flood-opacity="0" result="BackgroundImageFix"/>
<feColorMatrix in="SourceAlpha" type="matrix" values="0 0 0 0 0 0 0 0 0 0 0 0 0 0 0 0 0 0 127 0" result="hardAlpha"/>
<feOffset dy="4"/>
<feComposite in2="hardAlpha" operator="out"/>
<feColorMatrix type="matrix" values="0 0 0 0 0.85098 0 0 0 0 0.635294 0 0 0 0 0.45098 0 0 0 1 0"/>
<feBlend mode="normal" in2="BackgroundImageFix" result="effect1_dropShadow_31_747"/>
<feBlend mode="normal" in="SourceGraphic" in2="effect1_dropShadow_31_747" result="shape"/>
</filter>
<filter id="filter1_d_31_747" x="31.1084" y="49.7734" width="398.187" height="327.305" filterUnits="userSpaceOnUse" color-interpolation-filters="sRGB">
<feFlood flood-opacity="0" result="BackgroundImageFix"/>
<feColorMatrix in="SourceAlpha" type="matrix" values="0 0 0 0 0 0 0 0 0 0 0 0 0 0 0 0 0 0 127 0" result="hardAlpha"/>
<feOffset dy="10"/>
<feComposite in2="hardAlpha" operator="out"/>
<feColorMatrix type="matrix" values="0 0 0 0 1 0 0 0 0 0.368627 0 0 0 0 0.0431373 0 0 0 1 0"/>
<feBlend mode="normal" in2="BackgroundImageFix" result="effect1_dropShadow_31_747"/>
<feBlend mode="normal" in="SourceGraphic" in2="effect1_dropShadow_31_747" result="shape"/>
</filter>
<linearGradient id="paint0_linear_31_747" x1="230.202" y1="49.7734" x2="343.229" y2="353.599" gradientUnits="userSpaceOnUse">
<stop stop-color="#FFBD2F"/>
<stop offset="1" stop-color="#FD8843"/>
</linearGradient>
</defs>
</svg>
