<svg width="444" height="410" viewBox="0 0 444 410" fill="none" xmlns="http://www.w3.org/2000/svg">
<g filter="url(#filter0_d_14_678)">
<path d="M444 189C444 293.382 397.218 406 284 406C22 406 0 293.382 0 189C0 84.6181 125.782 0 239 0C352.218 0 444 84.6181 444 189Z" fill="#FFF0E7"/>
</g>
<path d="M432 196C456.067 291 395.048 406 282.82 406C23.1138 406 80.6061 340.185 36.0001 239.468C36.0001 135.378 137.773 32 250 32C362.227 32 413 121 432 196Z" fill="#F1BF9E"/>
<path d="M414 176.552C414 261.908 373.54 354 275.622 354C49.0273 354 30.0002 261.908 30.0002 176.552C30.0002 91.1953 138.784 22.0001 236.703 22.0001C334.621 22.0001 414 91.1953 414 176.552Z" fill="#F8B4F1"/>
<g filter="url(#filter1_d_14_678)">
<path d="M414 190.448C414 269.12 373.54 354 275.622 354C49.0273 354 30.0002 269.12 30.0002 190.448C30.0002 111.776 138.784 48.0002 236.703 48.0002C334.621 48.0002 414 111.776 414 190.448Z" fill="url(#paint0_linear_14_678)"/>
</g>
<mask id="path-5-inside-1_14_678" fill="white">
<path d="M205.674 98.4978C213.246 85.8101 270.941 87.6409 270.166 101.905C269.835 107.994 267.549 115.809 264.788 123.299C268.841 125.648 272.691 128.322 276.303 131.289C280.133 126.933 284.368 123.271 288.858 121.602C302.505 116.532 346.463 154.862 337.164 165.51C330.672 172.943 317.284 180.645 307.515 185.726C308.079 189.2 308.445 192.742 308.603 196.341C318.298 200.685 331.623 207.036 336.595 216.021C343.753 228.958 314.205 279.76 302.405 272.146C297.696 269.108 292.528 263.807 287.744 258.14C286 260.212 284.163 262.2 282.24 264.097C285.185 271.976 287.391 280.54 285.943 287.386C282.87 301.921 227.799 319.645 223.949 305.913C222.646 301.263 222.154 295.174 222.106 288.859C217.66 288.848 213.292 288.494 209.027 287.819C204.555 296.495 198.661 306.077 191.318 309.882C178.365 316.594 130.232 283.948 138.216 272.234C141.862 266.885 148.423 261.059 155.073 255.92C153.115 253.435 151.286 250.84 149.596 248.145C141.171 251.168 131.692 253.58 124.445 251.588C110.425 247.733 95.8344 190.516 109.41 187.248C116.697 185.494 127.414 186.001 136.909 187.042C137.731 181.466 139.061 176.06 140.849 170.877C134.054 162.784 125.556 151.825 124.868 142.035C123.826 127.202 171.806 94.3207 179.271 106.388C181.549 110.072 183.514 115.07 185.184 120.448C190.435 117.883 195.979 115.844 201.751 114.4C202.069 108.436 203.139 102.746 205.674 98.4978ZM221.45 164.972C203.799 164.972 189.49 180.424 189.49 199.484C189.491 218.544 203.799 233.996 221.45 233.996C239.101 233.996 253.41 218.544 253.41 199.484C253.41 180.424 239.101 164.973 221.45 164.972Z"/>
</mask>
<path d="M205.674 98.4978C213.246 85.8101 270.941 87.6409 270.166 101.905C269.835 107.994 267.549 115.809 264.788 123.299C268.841 125.648 272.691 128.322 276.303 131.289C280.133 126.933 284.368 123.271 288.858 121.602C302.505 116.532 346.463 154.862 337.164 165.51C330.672 172.943 317.284 180.645 307.515 185.726C308.079 189.2 308.445 192.742 308.603 196.341C318.298 200.685 331.623 207.036 336.595 216.021C343.753 228.958 314.205 279.76 302.405 272.146C297.696 269.108 292.528 263.807 287.744 258.14C286 260.212 284.163 262.2 282.24 264.097C285.185 271.976 287.391 280.54 285.943 287.386C282.87 301.921 227.799 319.645 223.949 305.913C222.646 301.263 222.154 295.174 222.106 288.859C217.66 288.848 213.292 288.494 209.027 287.819C204.555 296.495 198.661 306.077 191.318 309.882C178.365 316.594 130.232 283.948 138.216 272.234C141.862 266.885 148.423 261.059 155.073 255.92C153.115 253.435 151.286 250.84 149.596 248.145C141.171 251.168 131.692 253.58 124.445 251.588C110.425 247.733 95.8344 190.516 109.41 187.248C116.697 185.494 127.414 186.001 136.909 187.042C137.731 181.466 139.061 176.06 140.849 170.877C134.054 162.784 125.556 151.825 124.868 142.035C123.826 127.202 171.806 94.3207 179.271 106.388C181.549 110.072 183.514 115.07 185.184 120.448C190.435 117.883 195.979 115.844 201.751 114.4C202.069 108.436 203.139 102.746 205.674 98.4978ZM221.45 164.972C203.799 164.972 189.49 180.424 189.49 199.484C189.491 218.544 203.799 233.996 221.45 233.996C239.101 233.996 253.41 218.544 253.41 199.484C253.41 180.424 239.101 164.973 221.45 164.972Z" fill="white"/>
<path d="M205.674 98.4978L203.956 97.4729L203.956 97.473L205.674 98.4978ZM270.166 101.905L272.163 102.014L272.163 102.014L270.166 101.905ZM264.788 123.299L262.912 122.607L262.33 124.185L263.785 125.029L264.788 123.299ZM276.303 131.289L275.033 132.834L276.528 134.062L277.805 132.609L276.303 131.289ZM288.858 121.602L288.162 119.728L288.162 119.728L288.858 121.602ZM337.164 165.51L338.67 166.825L338.67 166.825L337.164 165.51ZM307.515 185.726L306.592 183.952L305.309 184.619L305.541 186.047L307.515 185.726ZM308.603 196.341L306.604 196.428L306.658 197.661L307.785 198.166L308.603 196.341ZM336.595 216.021L338.345 215.053L338.345 215.053L336.595 216.021ZM302.405 272.146L301.321 273.827L301.321 273.827L302.405 272.146ZM287.744 258.14L289.273 256.85L287.742 255.038L286.214 256.852L287.744 258.14ZM282.24 264.097L280.835 262.674L279.913 263.584L280.367 264.798L282.24 264.097ZM285.943 287.386L287.9 287.8L287.9 287.8L285.943 287.386ZM223.949 305.913L222.023 306.453L222.023 306.453L223.949 305.913ZM222.106 288.859L224.106 288.844L224.091 286.864L222.111 286.859L222.106 288.859ZM209.027 287.819L209.34 285.844L207.912 285.618L207.25 286.903L209.027 287.819ZM191.318 309.882L192.239 311.657L192.239 311.657L191.318 309.882ZM138.216 272.234L136.563 271.108L136.563 271.108L138.216 272.234ZM155.073 255.92L156.296 257.502L157.894 256.267L156.644 254.682L155.073 255.92ZM149.596 248.145L151.29 247.082L150.435 245.719L148.92 246.263L149.596 248.145ZM124.445 251.588L123.915 253.516L123.915 253.516L124.445 251.588ZM109.41 187.248L108.942 185.303L108.942 185.303L109.41 187.248ZM136.909 187.042L136.691 189.03L138.607 189.24L138.888 187.333L136.909 187.042ZM140.849 170.877L142.739 171.529L143.109 170.458L142.38 169.591L140.849 170.877ZM124.868 142.035L122.873 142.175L122.873 142.175L124.868 142.035ZM179.271 106.388L180.971 105.336L180.971 105.336L179.271 106.388ZM185.184 120.448L183.274 121.041L183.965 123.269L186.061 122.245L185.184 120.448ZM201.751 114.4L202.236 116.34L203.67 115.982L203.748 114.507L201.751 114.4ZM221.45 164.972L221.45 162.972H221.45V164.972ZM189.49 199.484L187.49 199.484L187.49 199.484L189.49 199.484ZM221.45 233.996L221.45 235.996L221.45 235.996L221.45 233.996ZM253.41 199.484L255.41 199.484L255.41 199.484L253.41 199.484ZM205.674 98.4978L207.391 99.5228C208.059 98.4042 209.404 97.2629 211.536 96.2096C213.642 95.1697 216.343 94.3004 219.475 93.627C225.734 92.2808 233.456 91.7708 240.964 92.0926C248.488 92.4151 255.64 93.5663 260.795 95.4493C263.381 96.3939 265.329 97.4748 266.577 98.6178C267.795 99.7326 268.224 100.779 268.169 101.797L270.166 101.905L272.163 102.014C272.302 99.4651 271.098 97.3339 269.279 95.6679C267.49 94.0301 265 92.7269 262.167 91.6922C256.485 89.6166 248.886 88.4285 241.136 88.0963C233.371 87.7634 225.298 88.2831 218.634 89.7164C215.303 90.4326 212.261 91.3904 209.765 92.6232C207.296 93.8426 205.182 95.4195 203.956 97.4729L205.674 98.4978ZM270.166 101.905L268.169 101.796C267.855 107.568 265.661 115.147 262.912 122.607L264.788 123.299L266.665 123.99C269.437 116.47 271.814 108.419 272.163 102.014L270.166 101.905ZM264.788 123.299L263.785 125.029C267.744 127.324 271.505 129.936 275.033 132.834L276.303 131.289L277.572 129.743C273.877 126.709 269.939 123.972 265.791 121.568L264.788 123.299ZM276.303 131.289L277.805 132.609C281.559 128.34 285.528 124.973 289.555 123.477L288.858 121.602L288.162 119.728C283.207 121.568 278.707 125.526 274.801 129.968L276.303 131.289ZM288.858 121.602L289.555 123.477C290.736 123.038 292.468 123.002 294.777 123.544C297.054 124.078 299.694 125.126 302.553 126.603C308.265 129.556 314.612 134.098 320.285 139.155C325.968 144.221 330.861 149.7 333.746 154.478C335.194 156.875 336.064 158.977 336.345 160.683C336.62 162.356 336.308 163.449 335.658 164.194L337.164 165.51L338.67 166.825C340.344 164.908 340.693 162.474 340.291 160.033C339.895 157.624 338.749 155.025 337.17 152.41C334.003 147.165 328.796 141.383 322.946 136.169C317.086 130.946 310.466 126.191 304.389 123.05C301.353 121.48 298.393 120.283 295.69 119.649C293.02 119.023 290.392 118.899 288.162 119.728L288.858 121.602ZM337.164 165.51L335.658 164.194C332.597 167.699 327.813 171.362 322.48 174.822C317.175 178.264 311.447 181.426 306.592 183.952L307.515 185.726L308.438 187.501C313.351 184.945 319.203 181.716 324.657 178.178C330.083 174.658 335.239 170.754 338.67 166.825L337.164 165.51ZM307.515 185.726L305.541 186.047C306.093 189.444 306.451 192.908 306.604 196.428L308.603 196.341L310.601 196.253C310.44 192.577 310.066 188.957 309.489 185.405L307.515 185.726ZM308.603 196.341L307.785 198.166C312.627 200.336 318.269 202.96 323.304 206.133C328.372 209.326 332.604 212.94 334.845 216.99L336.595 216.021L338.345 215.053C335.614 210.117 330.697 206.063 325.436 202.748C320.142 199.413 314.273 196.69 309.42 194.515L308.603 196.341ZM336.595 216.021L334.845 216.99C335.48 218.137 335.804 219.91 335.668 222.348C335.534 224.752 334.963 227.604 334.017 230.742C332.126 237.015 328.812 244.19 324.891 250.766C320.963 257.356 316.506 263.213 312.393 266.923C310.328 268.785 308.459 270.006 306.884 270.567C305.351 271.114 304.29 270.982 303.49 270.466L302.405 272.146L301.321 273.827C303.471 275.214 305.915 275.16 308.228 274.335C310.499 273.525 312.819 271.925 315.072 269.893C319.593 265.815 324.288 259.59 328.327 252.814C332.374 246.025 335.842 238.549 337.847 231.896C338.849 228.572 339.504 225.392 339.662 222.571C339.817 219.784 339.5 217.14 338.345 215.053L336.595 216.021ZM302.405 272.146L303.49 270.466C299.043 267.596 294.031 262.488 289.273 256.85L287.744 258.14L286.216 259.43C291.024 265.127 296.35 270.619 301.321 273.827L302.405 272.146ZM287.744 258.14L286.214 256.852C284.509 258.877 282.714 260.819 280.835 262.674L282.24 264.097L283.645 265.521C285.611 263.58 287.49 261.547 289.274 259.429L287.744 258.14ZM282.24 264.097L280.367 264.798C283.303 272.655 285.305 280.738 283.987 286.973L285.943 287.386L287.9 287.8C289.477 280.342 287.066 271.296 284.114 263.397L282.24 264.097ZM285.943 287.386L283.987 286.973C283.714 288.264 282.804 289.803 281.125 291.52C279.467 293.216 277.193 294.949 274.451 296.642C268.97 300.025 261.84 303.111 254.646 305.339C247.436 307.571 240.313 308.895 234.842 308.855C232.097 308.835 229.915 308.471 228.376 307.815C226.879 307.178 226.147 306.344 225.875 305.373L223.949 305.913L222.023 306.453C222.714 308.914 224.544 310.531 226.808 311.495C229.03 312.442 231.805 312.833 234.813 312.855C240.847 312.899 248.405 311.459 255.829 309.16C263.268 306.856 270.722 303.644 276.552 300.046C279.465 298.247 282.028 296.319 283.985 294.317C285.921 292.336 287.405 290.142 287.9 287.8L285.943 287.386ZM223.949 305.913L225.875 305.373C224.644 300.982 224.154 295.104 224.106 288.844L222.106 288.859L220.107 288.874C220.155 295.243 220.648 301.544 222.023 306.453L223.949 305.913ZM222.106 288.859L222.111 286.859C217.768 286.849 213.503 286.502 209.34 285.844L209.027 287.819L208.715 289.795C213.081 290.485 217.552 290.848 222.102 290.859L222.106 288.859ZM209.027 287.819L207.25 286.903C205.034 291.201 202.501 295.654 199.646 299.481C196.776 303.329 193.684 306.403 190.398 308.106L191.318 309.882L192.239 311.657C196.295 309.555 199.821 305.937 202.852 301.873C205.899 297.789 208.548 293.113 210.805 288.735L209.027 287.819ZM191.318 309.882L190.398 308.106C189.275 308.688 187.559 308.936 185.204 308.683C182.882 308.433 180.138 307.717 177.128 306.603C171.112 304.374 164.28 300.646 158.056 296.325C151.821 291.995 146.324 287.159 142.9 282.772C141.183 280.571 140.074 278.593 139.596 276.936C139.127 275.311 139.306 274.186 139.869 273.36L138.216 272.234L136.563 271.108C135.13 273.211 135.067 275.668 135.753 278.045C136.429 280.389 137.872 282.83 139.747 285.233C143.508 290.052 149.356 295.153 155.775 299.61C162.206 304.076 169.337 307.982 175.739 310.354C178.938 311.538 182.018 312.363 184.776 312.66C187.502 312.953 190.124 312.753 192.239 311.657L191.318 309.882ZM138.216 272.234L139.869 273.361C143.324 268.29 149.666 262.626 156.296 257.502L155.073 255.92L153.85 254.337C147.18 259.492 140.399 265.479 136.563 271.108L138.216 272.234ZM155.073 255.92L156.644 254.682C154.73 252.254 152.943 249.717 151.29 247.082L149.596 248.145L147.902 249.208C149.63 251.964 151.5 254.617 153.503 257.158L155.073 255.92ZM149.596 248.145L148.92 246.263C144.762 247.755 140.41 249.071 136.245 249.775C132.064 250.482 128.207 250.548 124.976 249.659L124.445 251.588L123.915 253.516C127.931 254.62 132.436 254.476 136.912 253.719C141.405 252.96 146.005 251.558 150.271 250.028L149.596 248.145ZM124.445 251.588L124.976 249.659C123.76 249.325 122.313 248.333 120.716 246.526C119.143 244.746 117.562 242.331 116.043 239.438C113.008 233.658 110.345 226.203 108.522 218.724C106.696 211.232 105.75 203.863 106.058 198.247C106.212 195.429 106.675 193.194 107.398 191.633C108.107 190.102 108.961 189.413 109.878 189.192L109.41 187.248L108.942 185.303C106.465 185.9 104.805 187.714 103.769 189.952C102.746 192.161 102.231 194.963 102.064 198.028C101.727 204.18 102.759 211.969 104.636 219.671C106.517 227.388 109.281 235.164 112.502 241.298C114.11 244.362 115.863 247.075 117.719 249.175C119.55 251.247 121.626 252.887 123.915 253.516L124.445 251.588ZM109.41 187.248L109.878 189.192C116.792 187.528 127.194 187.988 136.691 189.03L136.909 187.042L137.127 185.054C127.633 184.013 116.603 183.459 108.942 185.303L109.41 187.248ZM136.909 187.042L138.888 187.333C139.692 181.881 140.991 176.596 142.739 171.529L140.849 170.877L138.958 170.225C137.13 175.525 135.771 181.051 134.931 186.75L136.909 187.042ZM140.849 170.877L142.38 169.591C138.995 165.559 135.251 160.889 132.272 156.045C129.275 151.171 127.174 146.313 126.863 141.895L124.868 142.035L122.873 142.175C123.251 147.547 125.743 153.064 128.865 158.14C132.005 163.246 135.907 168.102 139.317 172.163L140.849 170.877ZM124.868 142.035L126.863 141.895C126.77 140.573 127.222 138.829 128.364 136.692C129.491 134.584 131.2 132.262 133.368 129.846C137.701 125.017 143.698 119.998 149.992 115.786C156.299 111.565 162.773 108.24 168.036 106.701C170.677 105.929 172.871 105.649 174.524 105.835C176.131 106.015 177.049 106.6 177.57 107.441L179.271 106.388L180.971 105.336C179.625 103.16 177.411 102.133 174.97 101.859C172.575 101.591 169.803 102.017 166.913 102.862C161.113 104.558 154.258 108.117 147.767 112.462C141.262 116.815 134.994 122.044 130.391 127.175C128.09 129.739 126.163 132.325 124.837 134.807C123.525 137.261 122.705 139.789 122.873 142.175L124.868 142.035ZM179.271 106.388L177.57 107.441C179.716 110.911 181.622 115.72 183.274 121.041L185.184 120.448L187.094 119.855C185.406 114.42 183.382 109.233 180.971 105.336L179.271 106.388ZM185.184 120.448L186.061 122.245C191.19 119.74 196.602 117.75 202.236 116.34L201.751 114.4L201.266 112.46C195.356 113.938 189.681 116.025 184.306 118.651L185.184 120.448ZM201.751 114.4L203.748 114.507C204.06 108.654 205.106 103.353 207.391 99.5226L205.674 98.4978L203.956 97.473C201.172 102.139 200.078 108.219 199.754 114.294L201.751 114.4ZM221.45 164.972V162.972C202.553 162.972 187.49 179.467 187.49 199.484L189.49 199.484L191.49 199.484C191.49 181.381 205.046 166.972 221.45 166.972V164.972ZM189.49 199.484L187.49 199.484C187.491 219.501 202.553 235.996 221.45 235.996V233.996V231.996C205.046 231.996 191.49 217.587 191.49 199.484L189.49 199.484ZM221.45 233.996L221.45 235.996C240.347 235.996 255.41 219.501 255.41 199.484L253.41 199.484L251.41 199.484C251.41 217.587 237.854 231.996 221.45 231.996L221.45 233.996ZM253.41 199.484L255.41 199.484C255.41 179.467 240.347 162.973 221.45 162.972L221.45 164.972L221.45 166.972C237.855 166.973 251.41 181.381 251.41 199.484L253.41 199.484Z" fill="#7C005A" mask="url(#path-5-inside-1_14_678)"/>
<defs>
<filter id="filter0_d_14_678" x="0" y="0" width="444" height="410" filterUnits="userSpaceOnUse" color-interpolation-filters="sRGB">
<feFlood flood-opacity="0" result="BackgroundImageFix"/>
<feColorMatrix in="SourceAlpha" type="matrix" values="0 0 0 0 0 0 0 0 0 0 0 0 0 0 0 0 0 0 127 0" result="hardAlpha"/>
<feOffset dy="4"/>
<feComposite in2="hardAlpha" operator="out"/>
<feColorMatrix type="matrix" values="0 0 0 0 0.85098 0 0 0 0 0.635294 0 0 0 0 0.45098 0 0 0 1 0"/>
<feBlend mode="normal" in2="BackgroundImageFix" result="effect1_dropShadow_14_678"/>
<feBlend mode="normal" in="SourceGraphic" in2="effect1_dropShadow_14_678" result="shape"/>
</filter>
<filter id="filter1_d_14_678" x="30.0002" y="48.0002" width="384" height="316" filterUnits="userSpaceOnUse" color-interpolation-filters="sRGB">
<feFlood flood-opacity="0" result="BackgroundImageFix"/>
<feColorMatrix in="SourceAlpha" type="matrix" values="0 0 0 0 0 0 0 0 0 0 0 0 0 0 0 0 0 0 127 0" result="hardAlpha"/>
<feOffset dy="10"/>
<feComposite in2="hardAlpha" operator="out"/>
<feColorMatrix type="matrix" values="0 0 0 0 0.486275 0 0 0 0 0 0 0 0 0 0.352941 0 0 0 1 0"/>
<feBlend mode="normal" in2="BackgroundImageFix" result="effect1_dropShadow_14_678"/>
<feBlend mode="normal" in="SourceGraphic" in2="effect1_dropShadow_14_678" result="shape"/>
</filter>
<linearGradient id="paint0_linear_14_678" x1="222" y1="48.0002" x2="331" y2="341" gradientUnits="userSpaceOnUse">
<stop stop-color="#F13FDF"/>
<stop offset="1" stop-color="#BA008C"/>
</linearGradient>
</defs>
</svg>
